<?xml version="1.0" encoding="utf-8"?>
<svg version="1.1" xmlns:xlink="http://www.w3.org/1999/xlink" width="1080px" height="608px" xmlns="http://www.w3.org/2000/svg">
  <g>
    <path d="M 0 0  L 1080 0  L 1080 608  L 0 608  L 0 0  " fill-rule="nonzero" fill="#cccccc" stroke="none" />
    <path d="M 43 43  L 1037 43  L 1037 565  L 43 565  L 43 43  " fill-rule="nonzero" fill="#ffffff" stroke="none" />
    <path d="M 607.2 182.4  C 581.664 182.4  561.6 162.336  561.6 136.8  C 561.6 111.264  581.664 91.2  607.2 91.2  C 632.736 91.2  652.8 111.264  652.8 136.8  C 652.8 162.336  632.736 182.4  607.2 182.4  " fill-rule="nonzero" fill="#cccccc" stroke="none" />
    <path d="M 58 550  L 58 279.4  L 299 156.4  L 636.4 383.813333333333  L 829.2 230.2  L 1022 383.813333333333  L 1022 550  L 58 550  " fill-rule="nonzero" fill="#169bd5" stroke="none" />
  </g>
</svg>