<?xml version="1.0" encoding="utf-8"?>
<svg version="1.1" xmlns:xlink="http://www.w3.org/1999/xlink" width="275px" height="275px" xmlns="http://www.w3.org/2000/svg">
  <g transform="matrix(1 0 0 1 -625 -1195 )">
    <path d="M 762.5 1195  C 839.5 1195  900 1255.5  900 1332.5  C 900 1409.5  839.5 1470  762.5 1470  C 685.5 1470  625 1409.5  625 1332.5  C 625 1255.5  685.5 1195  762.5 1195  Z " fill-rule="nonzero" fill="#ffffff" stroke="none" />
    <path d="M 762.5 1195.5  C 839.22 1195.5  899.5 1255.78  899.5 1332.5  C 899.5 1409.22  839.22 1469.5  762.5 1469.5  C 685.78 1469.5  625.5 1409.22  625.5 1332.5  C 625.5 1255.78  685.78 1195.5  762.5 1195.5  Z " stroke-width="1" stroke="#797979" fill="none" />
  </g>
</svg>