<?xml version="1.0" encoding="utf-8"?>
<svg version="1.1" xmlns:xlink="http://www.w3.org/1999/xlink" width="84px" height="80px" xmlns="http://www.w3.org/2000/svg">
  <g transform="matrix(1 0 0 1 -258 -350 )">
    <path d="M 81.1730769230769 28.6830497794581  C 83.0576923076923 28.9855072463768  84 29.7584541062802  84 31.0018903591682  C 84 31.7412308338584  83.5625 32.547784078975  82.6875 33.421550094518  L 64.3629807692308 51.2665406427221  L 68.7043269230769 76.471329552615  C 68.7379807692308 76.7065742491073  68.7548076923077 77.0426381012392  68.7548076923077 77.4795211090107  C 68.7548076923077 78.1852551984877  68.578125 78.7817685360218  68.2247596153846 79.2690611216131  C 67.8713942307692 79.7563537072044  67.3581730769231 80  66.6850961538461 80  C 66.0456730769231 80  65.3725961538461 79.7983616887209  64.6658653846154 79.3950850661626  L 42 67.4984247006931  L 19.3341346153846 79.3950850661626  C 18.59375 79.7983616887209  17.9206730769231 80  17.3149038461538 80  C 16.6081730769231 80  16.078125 79.7563537072044  15.7247596153846 79.2690611216131  C 15.3713942307692 78.7817685360218  15.1947115384615 78.1852551984877  15.1947115384615 77.4795211090107  C 15.1947115384615 77.2778827977316  15.2283653846154 76.9418189455997  15.2956730769231 76.471329552615  L 19.6370192307692 51.2665406427221  L 1.26201923076923 33.421550094518  C 0.420673076923077 32.5141776937618  0 31.7076244486452  0 31.0018903591682  C 0 29.7584541062802  0.942307692307692 28.9855072463768  2.82692307692308 28.6830497794581  L 28.1682692307692 25.0031505986137  L 39.5264423076923 2.06679269061121  C 40.1658653846154 0.688930896870401  40.9903846153846 0  42 0  C 43.0096153846154 0  43.8341346153846 0.688930896870401  44.4735576923077 2.06679269061121  L 55.8317307692308 25.0031505986137  L 81.1730769230769 28.6830497794581  Z " fill-rule="nonzero" fill="#f59a23" stroke="none" transform="matrix(1 0 0 1 258 350 )" />
  </g>
</svg>